<svg width="21" height="19" viewBox="0 0 21 19" fill="none" xmlns="http://www.w3.org/2000/svg">
<path d="M19.5 3.42857H2.35714C2.07298 3.42857 1.80046 3.31569 1.59953 3.11476C1.3986 2.91383 1.28571 2.6413 1.28571 2.35714C1.28571 2.07298 1.3986 1.80046 1.59953 1.59953C1.80046 1.3986 2.07298 1.28571 2.35714 1.28571H16.9286C17.0991 1.28571 17.2626 1.21799 17.3831 1.09743C17.5037 0.976867 17.5714 0.813353 17.5714 0.642857C17.5714 0.472361 17.5037 0.308848 17.3831 0.188288C17.2626 0.0677293 17.0991 0 16.9286 0H2.35714C1.73199 0 1.13244 0.248341 0.690391 0.690391C0.248341 1.13244 0 1.73199 0 2.35714V16.0714C0 16.6966 0.248341 17.2961 0.690391 17.7382C1.13244 18.1802 1.73199 18.4286 2.35714 18.4286H19.5C19.8978 18.4286 20.2794 18.2705 20.5607 17.9892C20.842 17.7079 21 17.3264 21 16.9286V4.92857C21 4.53075 20.842 4.14922 20.5607 3.86791C20.2794 3.58661 19.8978 3.42857 19.5 3.42857ZM19.7143 16.9286C19.7143 16.9854 19.6917 17.0399 19.6515 17.0801C19.6113 17.1203 19.5568 17.1429 19.5 17.1429H2.35714C2.07298 17.1429 1.80046 17.03 1.59953 16.829C1.3986 16.6281 1.28571 16.3556 1.28571 16.0714V4.45607C1.61721 4.62622 1.98454 4.71475 2.35714 4.71429H19.5C19.5568 4.71429 19.6113 4.73686 19.6515 4.77705C19.6917 4.81723 19.7143 4.87174 19.7143 4.92857V16.9286ZM16.7143 10.5C16.7143 10.7119 16.6514 10.9191 16.5337 11.0953C16.416 11.2715 16.2487 11.4088 16.0529 11.4899C15.8571 11.571 15.6417 11.5922 15.4338 11.5508C15.226 11.5095 15.0351 11.4075 14.8852 11.2576C14.7354 11.1078 14.6334 10.9169 14.592 10.709C14.5507 10.5012 14.5719 10.2858 14.653 10.09C14.7341 9.89421 14.8714 9.72687 15.0476 9.60914C15.2238 9.49141 15.4309 9.42857 15.6429 9.42857C15.927 9.42857 16.1995 9.54145 16.4005 9.74238C16.6014 9.94332 16.7143 10.2158 16.7143 10.5Z" fill="white"/>
</svg>
