<svg width="39" height="40" viewBox="0 0 39 40" fill="none" xmlns="http://www.w3.org/2000/svg">
<rect x="0.171875" y="0.664062" width="38.4961" height="38.4961" rx="13.7486" fill="#FB774A"/>
<g clip-path="url(#clip0_779_1659)">
<path d="M17.5879 24.4964C17.5879 25.0026 17.9983 25.413 18.5045 25.413H20.3376C20.8438 25.413 21.2542 25.0026 21.2542 24.4964V24.4964C21.2542 23.9902 20.8438 23.5798 20.3376 23.5798H18.5045C17.9983 23.5798 17.5879 23.9902 17.5879 24.4964V24.4964ZM12.0884 14.4141C11.5822 14.4141 11.1719 14.8244 11.1719 15.3306V15.3306C11.1719 15.8368 11.5822 16.2472 12.0884 16.2472H26.7536C27.2598 16.2472 27.6702 15.8368 27.6702 15.3306V15.3306C27.6702 14.8244 27.2598 14.4141 26.7536 14.4141H12.0884ZM13.9216 19.9135C13.9216 20.4197 14.332 20.8301 14.8382 20.8301H24.0039C24.5101 20.8301 24.9205 20.4197 24.9205 19.9135V19.9135C24.9205 19.4073 24.5101 18.9969 24.0039 18.9969H14.8382C14.332 18.9969 13.9216 19.4073 13.9216 19.9135V19.9135Z" fill="white"/>
</g>
<defs>
<clipPath id="clip0_779_1659">
<rect width="21.9978" height="21.9978" fill="white" transform="translate(8.42188 8.91406)"/>
</clipPath>
</defs>
</svg>
