<svg width="45" height="45" viewBox="0 0 45 45" fill="none" xmlns="http://www.w3.org/2000/svg">
<path d="M38.7138 5.01416L24.6602 15.452L27.259 9.29382L38.7138 5.01416Z" fill="#E2761B" stroke="#E2761B" stroke-linecap="round" stroke-linejoin="round"/>
<path d="M6.27344 5.01416L20.2141 15.5509L17.7424 9.29382L6.27344 5.01416Z" fill="#E4761B" stroke="#E4761B" stroke-linecap="round" stroke-linejoin="round"/>
<path d="M33.6609 29.209L29.918 34.9434L37.9264 37.1468L40.2287 29.3361L33.6609 29.209Z" fill="#E4761B" stroke="#E4761B" stroke-linecap="round" stroke-linejoin="round"/>
<path d="M4.78906 29.3362L7.0772 37.147L15.0857 34.9436L11.3427 29.2091L4.78906 29.3362Z" fill="#E4761B" stroke="#E4761B" stroke-linecap="round" stroke-linejoin="round"/>
<path d="M14.634 19.52L12.4023 22.8957L20.3543 23.2488L20.0718 14.7036L14.634 19.52Z" fill="#E4761B" stroke="#E4761B" stroke-linecap="round" stroke-linejoin="round"/>
<path d="M30.3522 19.5197L24.8438 14.6045L24.6602 23.2486L32.598 22.8955L30.3522 19.5197Z" fill="#E4761B" stroke="#E4761B" stroke-linecap="round" stroke-linejoin="round"/>
<path d="M15.0859 34.9434L19.8599 32.6129L15.7357 29.3926L15.0859 34.9434Z" fill="#E4761B" stroke="#E4761B" stroke-linecap="round" stroke-linejoin="round"/>
<path d="M25.1289 32.6129L29.917 34.9434L29.2532 29.3926L25.1289 32.6129Z" fill="#E4761B" stroke="#E4761B" stroke-linecap="round" stroke-linejoin="round"/>
<path d="M29.917 34.9433L25.1289 32.6128L25.5103 35.7343L25.4679 37.0478L29.917 34.9433Z" fill="#D7C1B3" stroke="#D7C1B3" stroke-linecap="round" stroke-linejoin="round"/>
<path d="M15.0859 34.9433L19.5351 37.0478L19.5068 35.7343L19.8599 32.6128L15.0859 34.9433Z" fill="#D7C1B3" stroke="#D7C1B3" stroke-linecap="round" stroke-linejoin="round"/>
<path d="M19.6041 27.3307L15.6211 26.1584L18.4318 24.873L19.6041 27.3307Z" fill="#233447" stroke="#233447" stroke-linecap="round" stroke-linejoin="round"/>
<path d="M25.3828 27.3307L26.5551 24.873L29.38 26.1584L25.3828 27.3307Z" fill="#233447" stroke="#233447" stroke-linecap="round" stroke-linejoin="round"/>
<path d="M15.0867 34.9435L15.7647 29.209L11.3438 29.3362L15.0867 34.9435Z" fill="#CD6116" stroke="#CD6116" stroke-linecap="round" stroke-linejoin="round"/>
<path d="M29.2383 29.209L29.9162 34.9434L33.6592 29.3361L29.2383 29.209Z" fill="#CD6116" stroke="#CD6116" stroke-linecap="round" stroke-linejoin="round"/>
<path d="M32.6019 22.8955L24.6641 23.2486L25.3985 27.3305L26.5708 24.8729L29.3957 26.1582L32.6019 22.8955Z" fill="#CD6116" stroke="#CD6116" stroke-linecap="round" stroke-linejoin="round"/>
<path d="M15.6227 26.1582L18.4475 24.8729L19.6057 27.3305L20.3543 23.2486L12.4023 22.8955L15.6227 26.1582Z" fill="#CD6116" stroke="#CD6116" stroke-linecap="round" stroke-linejoin="round"/>
<path d="M12.4023 22.8955L15.7357 29.3927L15.6227 26.1582L12.4023 22.8955Z" fill="#E4751F" stroke="#E4751F" stroke-linecap="round" stroke-linejoin="round"/>
<path d="M29.3951 26.1582L29.2539 29.3927L32.6014 22.8955L29.3951 26.1582Z" fill="#E4751F" stroke="#E4751F" stroke-linecap="round" stroke-linejoin="round"/>
<path d="M20.3541 23.2485L19.6055 27.3305L20.5377 32.1468L20.7495 25.805L20.3541 23.2485Z" fill="#E4751F" stroke="#E4751F" stroke-linecap="round" stroke-linejoin="round"/>
<path d="M24.6626 23.2485L24.2812 25.7909L24.4507 32.1468L25.3971 27.3305L24.6626 23.2485Z" fill="#E4751F" stroke="#E4751F" stroke-linecap="round" stroke-linejoin="round"/>
<path d="M25.3955 27.3305L24.4492 32.1469L25.1272 32.613L29.2515 29.3927L29.3927 26.1582L25.3955 27.3305Z" fill="#F6851B" stroke="#F6851B" stroke-linecap="round" stroke-linejoin="round"/>
<path d="M15.6211 26.1582L15.7341 29.3927L19.8584 32.613L20.5363 32.1469L19.6041 27.3305L15.6211 26.1582Z" fill="#F6851B" stroke="#F6851B" stroke-linecap="round" stroke-linejoin="round"/>
<path d="M25.4673 37.0479L25.5097 35.7343L25.1566 35.4236H19.8317L19.5068 35.7343L19.5351 37.0479L15.0859 34.9434L16.6396 36.2145L19.7893 38.4038H25.1989L28.3628 36.2145L29.9164 34.9434L25.4673 37.0479Z" fill="#C0AD9E" stroke="#C0AD9E" stroke-linecap="round" stroke-linejoin="round"/>
<path d="M25.1254 32.6131L24.4474 32.147H20.535L19.857 32.6131L19.5039 35.7345L19.8288 35.4238H25.1536L25.5067 35.7345L25.1254 32.6131Z" fill="#161616" stroke="#161616" stroke-linecap="round" stroke-linejoin="round"/>
<path d="M39.3097 16.13L40.5103 10.3673L38.7165 5.01416L25.1289 15.0989L30.3549 19.5198L37.7419 21.6808L39.3803 19.774L38.6741 19.2656L39.804 18.2345L38.9283 17.5565L40.0583 16.695L39.3097 16.13Z" fill="#763D16" stroke="#763D16" stroke-linecap="round" stroke-linejoin="round"/>
<path d="M4.49219 10.3673L5.69275 16.13L4.93004 16.695L6.05998 17.5565L5.1984 18.2345L6.32835 19.2656L5.62213 19.774L7.24642 21.6808L14.6334 19.5198L19.8594 15.0989L6.27185 5.01416L4.49219 10.3673Z" fill="#763D16" stroke="#763D16" stroke-linecap="round" stroke-linejoin="round"/>
<path d="M37.7387 21.6805L30.3517 19.5195L32.5975 22.8952L29.25 29.3924L33.6568 29.3359H40.2246L37.7387 21.6805Z" fill="#F6851B" stroke="#F6851B" stroke-linecap="round" stroke-linejoin="round"/>
<path d="M14.6337 19.5195L7.24669 21.6805L4.78906 29.3359H11.3427L15.7354 29.3924L12.4021 22.8952L14.6337 19.5195Z" fill="#F6851B" stroke="#F6851B" stroke-linecap="round" stroke-linejoin="round"/>
<path d="M24.6592 23.2487L25.1253 15.099L27.2722 9.29395H17.7383L19.8569 15.099L20.3513 23.2487L20.5208 25.8194L20.5349 32.1471H24.4473L24.4756 25.8194L24.6592 23.2487Z" fill="#F6851B" stroke="#F6851B" stroke-linecap="round" stroke-linejoin="round"/>
</svg>
