<svg width="9" height="9" viewBox="0 0 9 9" fill="none" xmlns="http://www.w3.org/2000/svg">
<g clip-path="url(#clip0_506_2707)">
<path d="M7.65995 5.68396C7.63255 5.65094 7.60564 5.61793 7.57923 5.58607C7.21607 5.14681 6.99636 4.88171 6.99636 3.63822C6.99636 2.99444 6.84235 2.46621 6.53878 2.07004C6.31494 1.77737 6.01237 1.55535 5.61355 1.39127C5.60842 1.38841 5.60384 1.38467 5.60002 1.38021C5.45657 0.89985 5.06403 0.578125 4.62131 0.578125C4.17859 0.578125 3.78621 0.89985 3.64276 1.37971C3.63894 1.38401 3.63442 1.38764 3.62939 1.39044C2.69872 1.77357 2.24642 2.50864 2.24642 3.63773C2.24642 4.88171 2.02704 5.14681 1.66355 5.58557C1.63714 5.61743 1.61024 5.64979 1.58283 5.68346C1.51205 5.76882 1.46721 5.87268 1.4536 5.98273C1.44 6.09278 1.45821 6.20443 1.50608 6.30446C1.60793 6.51905 1.825 6.65227 2.07277 6.65227H7.17167C7.41828 6.65227 7.63387 6.51922 7.73605 6.30562C7.78412 6.20556 7.8025 6.09383 7.78902 5.98364C7.77553 5.87346 7.73074 5.76946 7.65995 5.68396Z" fill="#718096"/>
<path d="M4.62143 7.97203C4.85997 7.97184 5.094 7.90709 5.29871 7.78465C5.50343 7.66221 5.67119 7.48665 5.7842 7.27658C5.78952 7.26652 5.79215 7.25525 5.79183 7.24386C5.79151 7.23248 5.78825 7.22137 5.78237 7.21162C5.77649 7.20187 5.76819 7.1938 5.75827 7.18821C5.74835 7.18261 5.73715 7.17968 5.72576 7.17969H3.51743C3.50603 7.17965 3.49481 7.18256 3.48487 7.18814C3.47493 7.19373 3.4666 7.20179 3.4607 7.21155C3.4548 7.2213 3.45153 7.23242 3.4512 7.24382C3.45087 7.25522 3.4535 7.26651 3.45883 7.27658C3.57183 7.48663 3.73956 7.66217 3.94424 7.78461C4.14892 7.90705 4.38293 7.97181 4.62143 7.97203Z" fill="#718096"/>
</g>
<defs>
<clipPath id="clip0_506_2707">
<rect width="8.45167" height="8.45167" fill="white" transform="translate(0.394531 0.046875)"/>
</clipPath>
</defs>
</svg>
