<svg width="10" height="10" viewBox="0 0 10 10" fill="none" xmlns="http://www.w3.org/2000/svg">
<path d="M6.22992 1.76437C5.90869 1.41755 5.46002 1.22656 4.96481 1.22656C4.46695 1.22656 4.0168 1.41639 3.69706 1.76106C3.37385 2.10953 3.21637 2.58312 3.25335 3.09451C3.32664 4.10343 4.09439 4.92417 4.96481 4.92417C5.83523 4.92417 6.60166 4.1036 6.67611 3.09484C6.71358 2.58807 6.55511 2.11547 6.22992 1.76437Z" fill="#718096"/>
<path d="M7.8701 8.6225H2.05957C1.98352 8.62349 1.9082 8.60751 1.8391 8.57573C1.77 8.54395 1.70885 8.49716 1.6601 8.43878C1.5528 8.31052 1.50955 8.13538 1.54158 7.95825C1.6809 7.18539 2.1157 6.53616 2.79909 6.0804C3.40623 5.67581 4.1753 5.45312 4.96483 5.45312C5.75437 5.45312 6.52344 5.67597 7.13058 6.0804C7.81397 6.536 8.24877 7.18522 8.38809 7.95809C8.42011 8.13521 8.37687 8.31035 8.26957 8.43861C8.22084 8.49703 8.1597 8.54385 8.09059 8.57566C8.02149 8.60747 7.94616 8.62347 7.8701 8.6225Z" fill="#718096"/>
</svg>
