<svg width="60" height="60" viewBox="0 0 60 60" fill="none" xmlns="http://www.w3.org/2000/svg">
<rect width="60" height="60" rx="20" fill="#161D26"/>
<g clip-path="url(#clip0_701_44)">
<path d="M21.3393 35.0018C20.9166 34.2708 20.588 33.4892 20.3613 32.6758C20.8546 32.4249 21.2689 32.0424 21.5584 31.5707C21.8478 31.0989 22.0011 30.5563 22.0013 30.0029C22.0015 29.4494 21.8486 28.9067 21.5595 28.4348C21.2704 27.9628 20.8564 27.58 20.3633 27.3288C20.8154 25.6943 21.6761 24.2017 22.8643 22.9918C23.3284 23.2935 23.8669 23.4609 24.4203 23.4756C24.9737 23.4902 25.5203 23.3514 25.9997 23.0746C26.479 22.7978 26.8725 22.3938 27.1365 21.9072C27.4004 21.4207 27.5246 20.8706 27.4953 20.3178C29.1374 19.8934 30.8606 19.8941 32.5023 20.3198C32.4733 20.8725 32.5977 21.4226 32.8619 21.909C33.1261 22.3954 33.5197 22.7993 33.9992 23.0758C34.4786 23.3524 35.0253 23.491 35.5786 23.4761C36.1319 23.4613 36.6704 23.2937 37.1343 22.9918C37.7133 23.5818 38.2273 24.2528 38.6593 25.0018C39.0923 25.7508 39.4163 26.5318 39.6373 27.3278C39.144 27.5787 38.7297 27.9611 38.4403 28.4329C38.1509 28.9046 37.9976 29.4472 37.9974 30.0007C37.9971 30.5541 38.15 31.0968 38.4391 31.5688C38.7282 32.0407 39.1422 32.4235 39.6353 32.6748C39.1833 34.3093 38.3226 35.8018 37.1343 37.0118C36.6702 36.7101 36.1317 36.5426 35.5784 36.528C35.025 36.5134 34.4784 36.6521 33.999 36.9289C33.5196 37.2057 33.1262 37.6098 32.8622 38.0963C32.5982 38.5829 32.474 39.133 32.5033 39.6858C30.8612 40.1102 29.1381 40.1095 27.4963 39.6838C27.5254 39.131 27.4009 38.581 27.1367 38.0946C26.8726 37.6081 26.479 37.2043 25.9995 36.9277C25.52 36.6511 24.9734 36.5126 24.4201 36.5274C23.8667 36.5423 23.3283 36.7099 22.8643 37.0118C22.2733 36.4087 21.7609 35.7334 21.3393 35.0018ZM26.9993 35.1978C28.065 35.8124 28.8662 36.7988 29.2493 37.9678C29.7483 38.0148 30.2493 38.0158 30.7483 37.9688C31.1317 36.7996 31.9333 35.8132 32.9993 35.1988C34.0645 34.5825 35.3199 34.3813 36.5243 34.6338C36.8143 34.2258 37.0643 33.7908 37.2723 33.3358C36.4518 32.4192 35.9984 31.232 35.9993 30.0018C35.9993 28.7418 36.4693 27.5648 37.2723 26.6678C37.0629 26.2129 36.8118 25.7784 36.5223 25.3698C35.3186 25.6221 34.0641 25.4213 32.9993 24.8058C31.9337 24.1911 31.1325 23.2048 30.7493 22.0358C30.2503 21.9888 29.7493 21.9878 29.2503 22.0348C28.8669 23.2039 28.0653 24.1903 26.9993 24.8048C25.9341 25.4211 24.6788 25.6223 23.4743 25.3698C23.1849 25.7781 22.9345 26.2126 22.7263 26.6678C23.5469 27.5843 24.0002 28.7716 23.9993 30.0018C23.9993 31.2618 23.5293 32.4388 22.7263 33.3358C22.9358 33.7906 23.1869 34.2251 23.4763 34.6338C24.68 34.3815 25.9345 34.5823 26.9993 35.1978ZM29.9993 33.0018C29.2037 33.0018 28.4406 32.6857 27.878 32.1231C27.3154 31.5605 26.9993 30.7974 26.9993 30.0018C26.9993 29.2061 27.3154 28.4431 27.878 27.8805C28.4406 27.3178 29.2037 27.0018 29.9993 27.0018C30.795 27.0018 31.558 27.3178 32.1206 27.8805C32.6833 28.4431 32.9993 29.2061 32.9993 30.0018C32.9993 30.7974 32.6833 31.5605 32.1206 32.1231C31.558 32.6857 30.795 33.0018 29.9993 33.0018ZM29.9993 31.0018C30.2645 31.0018 30.5189 30.8964 30.7064 30.7089C30.894 30.5213 30.9993 30.267 30.9993 30.0018C30.9993 29.7366 30.894 29.4822 30.7064 29.2947C30.5189 29.1071 30.2645 29.0018 29.9993 29.0018C29.7341 29.0018 29.4798 29.1071 29.2922 29.2947C29.1047 29.4822 28.9993 29.7366 28.9993 30.0018C28.9993 30.267 29.1047 30.5213 29.2922 30.7089C29.4798 30.8964 29.7341 31.0018 29.9993 31.0018Z" fill="#F0F4F7"/>
</g>
<defs>
<clipPath id="clip0_701_44">
<rect width="24" height="24" fill="white" transform="translate(18 18)"/>
</clipPath>
</defs>
</svg>
