<svg width="14" height="15" viewBox="0 0 14 15" fill="none" xmlns="http://www.w3.org/2000/svg">
<path d="M0.746903 10.532C0.452766 10.0234 0.224121 9.47961 0.0664062 8.91361C0.409652 8.73903 0.697914 8.4729 0.899304 8.14467C1.10069 7.81644 1.20736 7.43889 1.20751 7.0538C1.20765 6.66871 1.10126 6.29109 0.90012 5.9627C0.698976 5.63432 0.410913 5.36798 0.0677979 5.19314C0.382326 4.05584 0.9812 3.01733 1.808 2.17544C2.13092 2.38538 2.50563 2.50188 2.89066 2.51206C3.27569 2.52223 3.65603 2.42567 3.98958 2.23308C4.32313 2.04048 4.59689 1.75935 4.78057 1.4208C4.96424 1.08225 5.05066 0.699484 5.03027 0.31486C6.17286 0.019576 7.37181 0.020055 8.51417 0.316252C8.49395 0.700868 8.58055 1.08358 8.76436 1.42203C8.94818 1.76048 9.22205 2.04148 9.55566 2.23393C9.88928 2.42638 10.2696 2.52278 10.6546 2.51245C11.0397 2.50213 11.4143 2.38549 11.7371 2.17544C12.14 2.58596 12.4976 3.05285 12.7982 3.57401C13.0995 4.09516 13.325 4.63859 13.4787 5.19245C13.1355 5.36703 12.8472 5.63315 12.6458 5.96138C12.4444 6.28962 12.3378 6.66716 12.3376 7.05225C12.3375 7.43734 12.4439 7.81497 12.645 8.14335C12.8462 8.47174 13.1342 8.73808 13.4773 8.91291C13.1628 10.0502 12.5639 11.0887 11.7371 11.9306C11.4142 11.7207 11.0395 11.6042 10.6545 11.594C10.2694 11.5838 9.88911 11.6804 9.55555 11.873C9.222 12.0656 8.94824 12.3467 8.76457 12.6853C8.58089 13.0238 8.49447 13.4066 8.51486 13.7912C7.37227 14.0865 6.17332 14.086 5.03097 13.7898C5.05118 13.4052 4.96459 13.0225 4.78077 12.684C4.59696 12.3456 4.32309 12.0646 3.98947 11.8721C3.65585 11.6797 3.27549 11.5833 2.89048 11.5936C2.50548 11.6039 2.13083 11.7206 1.808 11.9306C1.39678 11.511 1.04025 11.0411 0.746903 10.532V10.532ZM4.68515 10.6684C5.42662 11.0961 5.98411 11.7824 6.25071 12.5958C6.59792 12.6285 6.94652 12.6292 7.29372 12.5965C7.5605 11.783 8.11825 11.0967 8.85998 10.6691C9.60116 10.2403 10.4746 10.1003 11.3127 10.276C11.5145 9.9921 11.6884 9.68943 11.8332 9.37284C11.2622 8.73509 10.9468 7.90901 10.9474 7.05303C10.9474 6.17631 11.2744 5.35735 11.8332 4.73322C11.6874 4.41673 11.5127 4.11439 11.3113 3.83006C10.4737 4.00562 9.60087 3.86588 8.85998 3.43763C8.11851 3.00997 7.56102 2.32363 7.29442 1.51025C6.94721 1.47755 6.59862 1.47685 6.25141 1.50956C5.98464 2.32305 5.42688 3.0094 4.68515 3.43693C3.94397 3.86577 3.07052 4.00577 2.23244 3.83006C2.03105 4.11415 1.8568 4.41653 1.71198 4.73322C2.28294 5.37096 2.59836 6.19704 2.59774 7.05303C2.59774 7.92974 2.27071 8.7487 1.71198 9.37284C1.85773 9.68933 2.03243 9.99166 2.23384 10.276C3.07139 10.1004 3.94427 10.2402 4.68515 10.6684ZM6.77257 9.14044C6.21895 9.14044 5.68801 8.92052 5.29654 8.52905C4.90508 8.13759 4.68515 7.60664 4.68515 7.05303C4.68515 6.49941 4.90508 5.96847 5.29654 5.577C5.68801 5.18554 6.21895 4.96562 6.77257 4.96562C7.32618 4.96562 7.85713 5.18554 8.24859 5.577C8.64006 5.96847 8.85998 6.49941 8.85998 7.05303C8.85998 7.60664 8.64006 8.13759 8.24859 8.52905C7.85713 8.92052 7.32618 9.14044 6.77257 9.14044ZM6.77257 7.74883C6.95711 7.74883 7.13409 7.67552 7.26457 7.54504C7.39506 7.41455 7.46837 7.23757 7.46837 7.05303C7.46837 6.86849 7.39506 6.69151 7.26457 6.56102C7.13409 6.43053 6.95711 6.35722 6.77257 6.35722C6.58803 6.35722 6.41105 6.43053 6.28056 6.56102C6.15007 6.69151 6.07676 6.86849 6.07676 7.05303C6.07676 7.23757 6.15007 7.41455 6.28056 7.54504C6.41105 7.67552 6.58803 7.74883 6.77257 7.74883V7.74883Z" fill="#F0F4F7"/>
</svg>
