<svg width="22" height="25" viewBox="0 0 22 25" fill="none" xmlns="http://www.w3.org/2000/svg">
<path d="M17.1121 17.1121H19.5566V2.44458H7.33374V4.88916H17.1121V17.1121ZM17.1121 19.5566V23.2223C17.1121 23.8982 16.562 24.4446 15.8812 24.4446H1.23085C1.06966 24.4455 0.909869 24.4147 0.760658 24.3537C0.611447 24.2927 0.475756 24.2028 0.361381 24.0893C0.247005 23.9757 0.1562 23.8406 0.0941827 23.6918C0.0321653 23.543 0.000158133 23.3835 0 23.2223L0.0024444 6.11267C0.0024444 5.43675 0.552475 4.88916 1.23329 4.88916H4.88794V1.22229C4.88794 0.898119 5.01671 0.587224 5.24594 0.358C5.47516 0.128777 5.78606 0 6.11023 0H20.7777C21.1019 0 21.4128 0.128777 21.642 0.358C21.8712 0.587224 22 0.898119 22 1.22229V18.3344C22 18.6585 21.8712 18.9694 21.642 19.1986C21.4128 19.4279 21.1019 19.5566 20.7777 19.5566H17.1121ZM2.44702 7.33374L2.44458 22.0012H14.6675V7.33374H2.44702ZM4.88916 17.1121H10.3895C10.5516 17.1121 10.707 17.0477 10.8216 16.9331C10.9362 16.8184 11.0006 16.663 11.0006 16.5009C11.0006 16.3388 10.9362 16.1834 10.8216 16.0688C10.707 15.9542 10.5516 15.8898 10.3895 15.8898H6.7226C5.91217 15.8898 5.13493 15.5678 4.56187 14.9948C3.98881 14.4217 3.66687 13.6445 3.66687 12.834C3.66687 12.0236 3.98881 11.2464 4.56187 10.6733C5.13493 10.1003 5.91217 9.77832 6.7226 9.77832H7.33374V8.55603H9.77832V9.77832H12.2229V12.2229H6.7226C6.56051 12.2229 6.40506 12.2873 6.29045 12.4019C6.17584 12.5165 6.11145 12.672 6.11145 12.834C6.11145 12.9961 6.17584 13.1516 6.29045 13.2662C6.40506 13.3808 6.56051 13.4452 6.7226 13.4452H10.3895C11.1999 13.4452 11.9771 13.7671 12.5502 14.3402C13.1232 14.9133 13.4452 15.6905 13.4452 16.5009C13.4452 17.3113 13.1232 18.0886 12.5502 18.6616C11.9771 19.2347 11.1999 19.5566 10.3895 19.5566H9.77832V20.7789H7.33374V19.5566H4.88916V17.1121Z" fill="white"/>
</svg>
