<svg width="45" height="44" viewBox="0 0 45 44" fill="none" xmlns="http://www.w3.org/2000/svg">
<path d="M34.3292 22.1177C34.3292 15.5849 29.0333 10.2891 22.5005 10.2891C15.9678 10.2891 10.6719 15.5849 10.6719 22.1177C10.6719 28.6505 15.9678 33.9464 22.5005 33.9464C29.0333 33.9464 34.3292 28.6505 34.3292 22.1177Z" fill="#0CAF60"/>
<path d="M39.1994 22.1212C39.1994 12.8984 31.7229 5.42188 22.5001 5.42188C13.2773 5.42188 5.80078 12.8984 5.80078 22.1212C5.80078 31.3439 13.2773 38.8205 22.5001 38.8205C31.7229 38.8205 39.1994 31.3439 39.1994 22.1212Z" stroke="#161D26" stroke-width="9.74126"/>
<path d="M19.0215 22.8081H25.2837V24.1997H22.5005V26.2872L19.0215 22.8081ZM22.5005 20.0249V17.9375L25.9795 21.4165H19.7173V20.0249H22.5005Z" fill="white"/>
</svg>
