<svg width="15" height="14" viewBox="0 0 15 14" fill="none" xmlns="http://www.w3.org/2000/svg">
<path d="M7.82132 0.09375C11.6642 0.09375 14.7794 3.20887 14.7794 7.05179C14.7794 10.8947 11.6642 14.0098 7.82132 14.0098C3.9784 14.0098 0.863281 10.8947 0.863281 7.05179H2.25489C2.25489 10.1259 4.74726 12.6182 7.82132 12.6182C10.8954 12.6182 13.3878 10.1259 13.3878 7.05179C13.3878 3.97773 10.8954 1.48536 7.82132 1.48536C5.90786 1.48536 4.21984 2.45044 3.21858 3.92067H5.03811V5.31228H0.863281V1.13746H2.25489V2.87697C3.52404 1.18616 5.54535 0.09375 7.82132 0.09375ZM8.51713 3.57277V6.76303L10.7736 9.01953L9.78906 10.0041L7.12552 7.33916V3.57277H8.51713Z" fill="white"/>
</svg>
