<svg width="14" height="14" viewBox="0 0 14 14" fill="none" xmlns="http://www.w3.org/2000/svg">
<path d="M1.50195 10.971C1.50195 11.9189 2.2268 12.6437 3.17468 12.6437H10.9807C11.9286 12.6437 12.6535 11.9189 12.6535 10.971V6.51037H1.50195V10.971ZM10.9807 2.60734H9.86559V2.04976C9.86559 1.71522 9.64256 1.49219 9.30801 1.49219C8.97347 1.49219 8.75044 1.71522 8.75044 2.04976V2.60734H5.40498V2.04976C5.40498 1.71522 5.18195 1.49219 4.84741 1.49219C4.51286 1.49219 4.28983 1.71522 4.28983 2.04976V2.60734H3.17468C2.2268 2.60734 1.50195 3.33219 1.50195 4.28007V5.39522H12.6535V4.28007C12.6535 3.33219 11.9286 2.60734 10.9807 2.60734Z" fill="white"/>
</svg>
