<svg width="60" height="60" viewBox="0 0 60 60" fill="none" xmlns="http://www.w3.org/2000/svg">
<rect width="60" height="60" rx="20" fill="#161D26"/>
<path d="M23 36H37V29.031C37 25.148 33.866 22 30 22C26.134 22 23 25.148 23 29.031V36ZM30 20C34.97 20 39 24.043 39 29.031V38H21V29.031C21 24.043 25.03 20 30 20ZM27.5 39H32.5C32.5 39.663 32.2366 40.2989 31.7678 40.7678C31.2989 41.2366 30.663 41.5 30 41.5C29.337 41.5 28.7011 41.2366 28.2322 40.7678C27.7634 40.2989 27.5 39.663 27.5 39Z" fill="white"/>
<path d="M30 21C30 17.2615 30 15.3923 30.8038 14C31.3305 13.0879 32.0879 12.3305 33 11.8038C34.3923 11 36.2615 11 40 11C43.7385 11 45.6077 11 47 11.8038C47.9121 12.3305 48.6695 13.0879 49.1962 14C50 15.3923 50 17.2615 50 21C50 24.7385 50 26.6077 49.1962 28C48.6695 28.9121 47.9121 29.6695 47 30.1962C45.6077 31 43.7385 31 40 31C36.2615 31 34.3923 31 33 30.1962C32.0879 29.6695 31.3305 28.9121 30.8038 28C30 26.6077 30 24.7385 30 21Z" fill="#FF3E46"/>
<path d="M43.1642 23.3066C43.1642 23.9128 43.0229 24.4277 42.7403 24.8516C42.4623 25.2708 42.0841 25.5898 41.6056 25.8086C41.1316 26.0273 40.5961 26.1367 39.9991 26.1367C39.4021 26.1367 38.8644 26.0273 38.3859 25.8086C37.9073 25.5898 37.5291 25.2708 37.2511 24.8516C36.9731 24.4277 36.8341 23.9128 36.8341 23.3066C36.8341 22.9102 36.9093 22.5479 37.0597 22.2197C37.2146 21.887 37.4311 21.5977 37.7091 21.3516C37.9916 21.1055 38.3243 20.9163 38.7071 20.7842C39.0945 20.6475 39.5206 20.5791 39.9855 20.5791C40.5961 20.5791 41.1407 20.6976 41.6192 20.9346C42.0978 21.167 42.4737 21.4883 42.7472 21.8984C43.0252 22.3086 43.1642 22.778 43.1642 23.3066ZM41.8927 23.2793C41.8927 22.9102 41.8129 22.5843 41.6534 22.3018C41.4939 22.0146 41.2706 21.7913 40.9835 21.6318C40.6964 21.4723 40.3637 21.3926 39.9855 21.3926C39.5981 21.3926 39.2631 21.4723 38.9806 21.6318C38.7026 21.7913 38.4861 22.0146 38.3312 22.3018C38.1762 22.5843 38.0987 22.9102 38.0987 23.2793C38.0987 23.6621 38.1739 23.9902 38.3243 24.2637C38.4793 24.5326 38.698 24.7399 38.9806 24.8857C39.2677 25.027 39.6072 25.0977 39.9991 25.0977C40.3911 25.0977 40.7283 25.027 41.0109 24.8857C41.2934 24.7399 41.5099 24.5326 41.6603 24.2637C41.8152 23.9902 41.8927 23.6621 41.8927 23.2793ZM42.9317 18.6377C42.9317 19.1208 42.8041 19.556 42.5489 19.9434C42.2937 20.3307 41.9451 20.6361 41.503 20.8594C41.061 21.0827 40.5597 21.1943 39.9991 21.1943C39.4295 21.1943 38.9213 21.0827 38.4747 20.8594C38.0327 20.6361 37.6863 20.3307 37.4357 19.9434C37.185 19.556 37.0597 19.1208 37.0597 18.6377C37.0597 18.0589 37.185 17.5667 37.4357 17.1611C37.6909 16.7555 38.0395 16.4456 38.4816 16.2314C38.9236 16.0173 39.4272 15.9102 39.9923 15.9102C40.562 15.9102 41.0678 16.0173 41.5099 16.2314C41.9519 16.4456 42.2983 16.7555 42.5489 17.1611C42.8041 17.5667 42.9317 18.0589 42.9317 18.6377ZM41.6671 18.6582C41.6671 18.3255 41.5965 18.0316 41.4552 17.7764C41.3139 17.5212 41.1179 17.3206 40.8673 17.1748C40.6166 17.0244 40.325 16.9492 39.9923 16.9492C39.6596 16.9492 39.3679 17.0199 39.1173 17.1611C38.8712 17.2979 38.6775 17.4938 38.5362 17.749C38.3995 18.0042 38.3312 18.3073 38.3312 18.6582C38.3312 19 38.3995 19.2985 38.5362 19.5537C38.6775 19.8089 38.8735 20.0072 39.1241 20.1484C39.3748 20.2897 39.6664 20.3604 39.9991 20.3604C40.3318 20.3604 40.6212 20.2897 40.8673 20.1484C41.1179 20.0072 41.3139 19.8089 41.4552 19.5537C41.5965 19.2985 41.6671 19 41.6671 18.6582Z" fill="white"/>
</svg>
