<svg width="10" height="9" viewBox="0 0 10 9" fill="none" xmlns="http://www.w3.org/2000/svg">
<g clip-path="url(#clip0_506_2706)">
<path d="M5.19533 2.95264C4.93415 2.95264 4.67883 3.03009 4.46166 3.17519C4.24449 3.3203 4.07523 3.52655 3.97528 3.76785C3.87533 4.00915 3.84918 4.27468 3.90013 4.53084C3.95109 4.78701 4.07686 5.02231 4.26155 5.207C4.44623 5.39168 4.68154 5.51746 4.9377 5.56841C5.19387 5.61937 5.45939 5.59321 5.70069 5.49326C5.942 5.39331 6.14824 5.22405 6.29335 5.00688C6.43846 4.78972 6.51591 4.5344 6.51591 4.27321C6.51486 3.9233 6.37539 3.58801 6.12796 3.34058C5.88053 3.09315 5.54525 2.95368 5.19533 2.95264ZM8.04645 4.27321C8.04576 4.39661 8.03672 4.51981 8.01938 4.64198L8.82311 5.27124C8.85812 5.30014 8.88171 5.34055 8.88966 5.38524C8.89761 5.42994 8.88941 5.47601 8.86653 5.51521L8.10621 6.82786C8.08309 6.86672 8.04702 6.89618 8.00432 6.91107C7.96163 6.92595 7.91506 6.92531 7.8728 6.90924L6.92776 6.52958C6.73097 6.68111 6.51563 6.80687 6.28695 6.90379L6.14565 7.9071C6.13774 7.95204 6.11447 7.99284 6.07982 8.02253C6.04516 8.05221 6.00127 8.06895 5.95565 8.06986H4.43501C4.39022 8.06899 4.34705 8.05296 4.31254 8.02439C4.27803 7.99582 4.25423 7.95639 4.24501 7.91255L4.10371 6.90924C3.87441 6.81344 3.6589 6.68748 3.46291 6.53469L2.51787 6.91436C2.47563 6.93044 2.42906 6.93111 2.38637 6.91626C2.34368 6.9014 2.3076 6.87197 2.28446 6.83314L1.52414 5.52066C1.50125 5.48145 1.49305 5.43539 1.50101 5.39069C1.50896 5.346 1.53255 5.30559 1.56755 5.27668L2.37129 4.64743C2.35414 4.52341 2.3451 4.39841 2.34421 4.27321C2.3449 4.14982 2.35395 4.02661 2.37129 3.90444L1.56755 3.27519C1.53255 3.24628 1.50896 3.20587 1.50101 3.16118C1.49305 3.11648 1.50125 3.07042 1.52414 3.03121L2.28446 1.71856C2.30757 1.6797 2.34365 1.65024 2.38634 1.63535C2.42903 1.62047 2.47561 1.62112 2.51787 1.63718L3.46291 2.01685C3.65969 1.86531 3.87504 1.73955 4.10371 1.64263L4.24501 0.639323C4.25292 0.594382 4.27619 0.553582 4.31085 0.523896C4.3455 0.494209 4.38939 0.477478 4.43501 0.476562H5.95565C6.00044 0.477434 6.04362 0.493464 6.07813 0.522036C6.11263 0.550607 6.13644 0.590033 6.14565 0.633876L6.28695 1.63718C6.51655 1.73292 6.73233 1.85888 6.92859 2.01173L7.8728 1.63206C7.91504 1.61598 7.9616 1.61531 8.00429 1.63017C8.04698 1.64502 8.08307 1.67445 8.10621 1.71328L8.86653 3.02593C8.88941 3.06514 8.89761 3.1112 8.88966 3.1559C8.88171 3.20059 8.85812 3.241 8.82311 3.26991L8.01938 3.89916C8.03651 4.02312 8.04556 4.14807 8.04645 4.27321Z" fill="#718096"/>
</g>
<defs>
<clipPath id="clip0_506_2706">
<rect width="8.45167" height="8.45167" fill="white" transform="translate(0.970703 0.046875)"/>
</clipPath>
</defs>
</svg>
