<svg width="17" height="17" viewBox="0 0 17 17" fill="none" xmlns="http://www.w3.org/2000/svg">
<path d="M8.26669 14.2188C7.10297 14.2188 5.96538 13.8669 4.99778 13.2076C4.03019 12.5483 3.27603 11.6112 2.8307 10.5149C2.38536 9.4185 2.26884 8.2121 2.49587 7.04821C2.7229 5.88433 3.28329 4.81523 4.10616 3.97611C4.92904 3.137 5.97744 2.56555 7.1188 2.33404C8.26016 2.10253 9.44321 2.22135 10.5183 2.67548C11.5935 3.1296 12.5124 3.89864 13.1589 4.88533C13.8055 5.87203 14.1506 7.03206 14.1506 8.21875C14.1506 9.81005 13.5307 11.3362 12.4272 12.4614C11.3238 13.5866 9.82719 14.2188 8.26669 14.2188ZM8.26669 13.0188C9.19766 13.0188 10.1077 12.7372 10.8818 12.2098C11.6559 11.6824 12.2592 10.9327 12.6155 10.0556C12.9717 9.17855 13.065 8.21343 12.8833 7.28232C12.7017 6.35121 12.2534 5.49593 11.5951 4.82464C10.9368 4.15335 10.0981 3.69619 9.185 3.51098C8.27191 3.32577 7.32547 3.42083 6.46536 3.78413C5.60525 4.14743 4.8701 4.76266 4.35288 5.55202C3.83566 6.34137 3.55959 7.2694 3.55959 8.21875C3.55959 9.49179 4.05551 10.7127 4.93827 11.6129C5.82102 12.513 7.01829 13.0188 8.26669 13.0188ZM7.6783 10.6188L5.18354 8.07275L6.0112 7.22475L7.6783 8.91875L11.0125 5.52775L11.8451 6.37575L7.6783 10.6188Z" fill="#C4C4C4"/>
</svg>
