<svg width="25" height="24" viewBox="0 0 25 24" fill="none" xmlns="http://www.w3.org/2000/svg">
<path d="M20.5383 11.9988C20.5382 10.2157 19.9538 8.48378 18.878 7.07804C17.8023 5.67229 16.2968 4.67333 14.6007 4.23978C12.9045 3.80623 11.115 3.96295 9.51617 4.68505C7.91736 5.40715 6.60096 6.65323 5.77599 8.22543C4.95103 9.79764 4.6648 11.6058 4.96275 13.3629C5.2607 15.1199 6.12576 16.7251 7.42055 17.9235C8.71535 19.1219 10.3657 19.8448 12.1094 19.9775C13.8532 20.1102 15.5904 19.645 17.0453 18.6558L18.1338 20.3198C16.3153 21.5564 14.1437 22.1381 11.964 21.9723C9.78427 21.8066 7.72132 20.903 6.10274 19.405C4.48416 17.9071 3.40274 15.9007 3.03021 13.7044C2.65768 11.508 3.01539 9.24777 4.04654 7.28247C5.07769 5.31716 6.72316 3.75949 8.72167 2.8568C10.7202 1.95411 12.9571 1.75815 15.0773 2.30004C17.1975 2.84194 19.0794 4.09062 20.4242 5.8478C21.7689 7.60498 22.4994 9.76992 22.4996 11.9988V13.4988C22.501 14.2487 22.2661 14.9792 21.8297 15.5827C21.3932 16.1862 20.7782 16.6308 20.0752 16.851C19.3723 17.0712 18.6186 17.0553 17.9252 16.8058C17.2317 16.5562 16.6352 16.0862 16.2235 15.4648C15.5687 16.1585 14.7313 16.6446 13.8121 16.8648C12.8928 17.0849 11.9308 17.0297 11.0416 16.7058C10.1524 16.3819 9.37384 15.8031 8.79943 15.0388C8.22503 14.2746 7.87923 13.3575 7.80359 12.3978C7.72795 11.438 7.92569 10.4763 8.37304 9.62837C8.82039 8.78042 9.49833 8.08222 10.3254 7.61766C11.1525 7.1531 12.0935 6.94194 13.0354 7.00956C13.9773 7.07718 14.88 7.4207 15.6351 7.99884H17.5964V13.4988C17.5964 13.8967 17.7514 14.2782 18.0272 14.5595C18.3031 14.8408 18.6773 14.9988 19.0674 14.9988C19.4575 14.9988 19.8316 14.8408 20.1075 14.5595C20.3834 14.2782 20.5383 13.8967 20.5383 13.4988V11.9988ZM12.6932 8.99884C12.1113 8.99884 11.5425 9.17479 11.0587 9.50444C10.5749 9.83408 10.1979 10.3026 9.97519 10.8508C9.75252 11.399 9.69426 12.0022 9.80778 12.5841C9.92129 13.1661 10.2015 13.7006 10.6129 14.1202C11.0244 14.5397 11.5486 14.8254 12.1192 14.9412C12.6899 15.057 13.2814 14.9975 13.819 14.7705C14.3566 14.5434 14.8161 14.1589 15.1393 13.6656C15.4626 13.1722 15.6351 12.5922 15.6351 11.9988C15.6351 11.2032 15.3252 10.4401 14.7734 9.87752C14.2217 9.31491 13.4734 8.99884 12.6932 8.99884Z" fill="#C4C4C4"/>
</svg>
