<svg width="36" height="35" viewBox="0 0 36 35" fill="none" xmlns="http://www.w3.org/2000/svg">
<rect x="0.902344" width="34.3226" height="35" rx="12" fill="white" fill-opacity="0.2"/>
<g clip-path="url(#clip0_491_15655)">
<path d="M11.8689 18.639L21.5229 18.639L17.7529 22.379C17.541 22.5965 17.4224 22.8882 17.4224 23.192C17.4224 23.4957 17.541 23.7875 17.7529 24.005C17.9676 24.217 18.2572 24.3359 18.5589 24.3359C18.8607 24.3359 19.1503 24.217 19.3649 24.005L25.0969 18.305C25.302 18.0869 25.4161 17.7989 25.4161 17.4995C25.4161 17.2002 25.302 16.9121 25.0969 16.694L19.3649 10.994C19.1503 10.7819 18.8607 10.6631 18.5589 10.6631C18.2572 10.6631 17.9676 10.7819 17.7529 10.994C17.5458 11.2097 17.4267 11.495 17.4189 11.794C17.4219 12.0958 17.5416 12.3846 17.7529 12.6L21.5229 16.355L11.8689 16.355C11.5723 16.3638 11.2908 16.4878 11.0841 16.7007C10.8773 16.9136 10.7617 17.1987 10.7617 17.4955C10.7617 17.7922 10.8773 18.0774 11.0841 18.2903C11.2908 18.5032 11.5723 18.6272 11.8689 18.636L11.8689 18.639Z" fill="white"/>
</g>
<defs>
<clipPath id="clip0_491_15655">
<rect width="14.4018" height="13.674" fill="white" transform="matrix(1 1.78296e-07 1.71461e-07 -1 10.8477 24.3359)"/>
</clipPath>
</defs>
</svg>
